<svg width="40" height="41" viewBox="0 0 40 41" fill="none" xmlns="http://www.w3.org/2000/svg">
<rect y="0.399902" width="40" height="40" rx="8" fill="#901D63"/>
<path d="M20.0017 20.2653C20.4992 20.2653 20.9246 20.0881 21.2778 19.7338C21.631 19.3794 21.8076 18.9535 21.8076 18.4559C21.8076 17.9583 21.6305 17.5329 21.2761 17.1797C20.9218 16.8265 20.4958 16.6499 19.9983 16.6499C19.5007 16.6499 19.0753 16.8271 18.7221 17.1814C18.3689 17.5357 18.1923 17.9617 18.1923 18.4593C18.1923 18.9569 18.3694 19.3823 18.7238 19.7355C19.0781 20.0887 19.5041 20.2653 20.0017 20.2653ZM20 27.9134C21.9564 26.1621 23.4535 24.4823 24.4913 22.8739C25.5291 21.2656 26.048 19.8569 26.048 18.648C26.048 16.8249 25.4689 15.3262 24.3105 14.1518C23.1522 12.9774 21.7153 12.3903 20 12.3903C18.2846 12.3903 16.8477 12.9774 15.6894 14.1518C14.531 15.3262 13.9519 16.8249 13.9519 18.648C13.9519 19.8569 14.4708 21.2656 15.5086 22.8739C16.5464 24.4823 18.0436 26.1621 20 27.9134ZM20 29.9095C17.4833 27.7287 15.5961 25.6992 14.3384 23.821C13.0807 21.9428 12.4519 20.2185 12.4519 18.648C12.4519 16.3403 13.1984 14.472 14.6913 13.0432C16.1843 11.6143 17.9538 10.8999 20 10.8999C22.0461 10.8999 23.8156 11.6143 25.3086 13.0432C26.8015 14.472 27.548 16.3403 27.548 18.648C27.548 20.2185 26.9192 21.9428 25.6615 23.821C24.4038 25.6992 22.5166 27.7287 20 29.9095Z" fill="white"/>
</svg>
