<svg width="20" height="21" viewBox="0 0 20 21" fill="none" xmlns="http://www.w3.org/2000/svg">
<path d="M10 20.7999C4.47715 20.7999 0 16.3227 0 10.7999C0 5.27708 4.47715 0.799927 10 0.799927C15.5228 0.799927 20 5.27708 20 10.7999C20 16.3227 15.5228 20.7999 10 20.7999ZM6.89014 11.9707L6.90279 11.9627C7.48252 13.8766 7.77238 14.8336 7.77238 14.8336C7.88465 15.1441 8.03901 15.1995 8.22631 15.1742C8.41351 15.1488 8.51291 15.0475 8.63511 14.9296C8.63511 14.9296 9.03141 14.5471 9.82401 13.7822L12.3749 15.6697C12.8397 15.9265 13.1753 15.794 13.2907 15.2376L14.9485 7.41634C15.1315 6.68835 14.8105 6.39637 14.246 6.62747L4.51299 10.387C3.84898 10.6539 3.85219 11.0254 4.3921 11.191L6.89014 11.9707Z" fill="#901D63"/>
</svg>
