<svg width="16" height="17" viewBox="0 0 16 17" fill="none" xmlns="http://www.w3.org/2000/svg">
<path d="M15.0027 16.8999C13.229 16.8999 11.4471 16.4875 9.65701 15.6628C7.86697 14.8381 6.22233 13.6746 4.7231 12.1723C3.22384 10.67 2.06185 9.02538 1.23711 7.23837C0.41237 5.45134 0 3.67095 0 1.8972C0 1.61226 0.0941179 1.37481 0.282354 1.18485C0.47059 0.994884 0.705884 0.899902 0.988238 0.899902H4.05789C4.2956 0.899902 4.50526 0.977432 4.68686 1.13249C4.86846 1.28755 4.98399 1.47911 5.03345 1.70715L5.57282 4.47636C5.61023 4.73338 5.60238 4.9542 5.54929 5.13881C5.4962 5.32342 5.40088 5.47847 5.26331 5.60396L3.08956 7.71981C3.43949 8.36053 3.8392 8.96656 4.28867 9.5379C4.73815 10.1093 5.22472 10.655 5.74839 11.175C6.26485 11.6915 6.81388 12.1711 7.39548 12.614C7.97708 13.0568 8.60514 13.4689 9.27965 13.8502L11.3919 11.7198C11.5391 11.5666 11.7174 11.4592 11.9267 11.3977C12.1361 11.3361 12.3536 11.3211 12.5792 11.3524L15.1927 11.8845C15.4305 11.9473 15.6244 12.0686 15.7747 12.2483C15.9249 12.4281 16 12.6321 16 12.8601V15.9117C16 16.194 15.905 16.4293 15.7151 16.6175C15.5251 16.8058 15.2876 16.8999 15.0027 16.8999ZM2.4217 6.38408L4.10135 4.77683C4.13152 4.75269 4.15113 4.71951 4.16018 4.67728C4.16923 4.63504 4.16772 4.59582 4.15566 4.55963L3.7466 2.45645C3.73454 2.40818 3.71342 2.37199 3.68326 2.34786C3.65309 2.32372 3.61388 2.31165 3.56561 2.31165H1.55292C1.51673 2.31165 1.48657 2.32372 1.46243 2.34786C1.43829 2.37199 1.42622 2.40215 1.42622 2.43835C1.47448 3.08149 1.57976 3.73489 1.74205 4.39855C1.90436 5.0622 2.13091 5.72405 2.4217 6.38408ZM10.6099 14.518C11.2338 14.8088 11.8845 15.0312 12.562 15.185C13.2395 15.3388 13.8727 15.4302 14.4615 15.4592C14.4978 15.4592 14.5279 15.4471 14.552 15.423C14.5762 15.3989 14.5883 15.3687 14.5883 15.3325V13.3524C14.5883 13.3041 14.5762 13.2649 14.552 13.2347C14.5279 13.2046 14.4917 13.1835 14.4435 13.1714L12.467 12.7696C12.4308 12.7575 12.3991 12.756 12.372 12.7651C12.3448 12.7741 12.3162 12.7937 12.286 12.8239L10.6099 14.518Z" fill="white"/>
</svg>
