<svg width="20" height="16" viewBox="0 0 20 16" fill="none" xmlns="http://www.w3.org/2000/svg">
<path d="M2.3077 15.8999C1.80257 15.8999 1.375 15.7249 1.025 15.3749C0.675 15.0249 0.5 14.5973 0.5 14.0922V2.7076C0.5 2.20247 0.675 1.7749 1.025 1.4249C1.375 1.0749 1.80257 0.899902 2.3077 0.899902H17.6923C18.1974 0.899902 18.625 1.0749 18.975 1.4249C19.325 1.7749 19.5 2.20247 19.5 2.7076V14.0922C19.5 14.5973 19.325 15.0249 18.975 15.3749C18.625 15.7249 18.1974 15.8999 17.6923 15.8999H2.3077ZM9.99998 8.95753L1.99998 3.84215V14.0922C1.99998 14.1819 2.02883 14.2556 2.08653 14.3133C2.14423 14.371 2.21795 14.3999 2.3077 14.3999H17.6923C17.782 14.3999 17.8557 14.371 17.9134 14.3133C17.9711 14.2556 18 14.1819 18 14.0922V3.84215L9.99998 8.95753ZM9.99998 7.39988L17.8461 2.39988H2.15383L9.99998 7.39988ZM1.99998 3.84215V2.39988V14.0922C1.99998 14.1819 2.02883 14.2556 2.08653 14.3133C2.14423 14.371 2.21795 14.3999 2.3077 14.3999H1.99998V3.84215Z" fill="white"/>
</svg>
