<svg width="40" height="41" viewBox="0 0 40 41" fill="none" xmlns="http://www.w3.org/2000/svg">
<rect y="0.399902" width="40" height="40" rx="8" fill="#901D63"/>
<path d="M27.0027 28.8999C25.229 28.8999 23.4471 28.4875 21.657 27.6628C19.867 26.8381 18.2223 25.6746 16.7231 24.1723C15.2238 22.67 14.0618 21.0254 13.2371 19.2384C12.4124 17.4513 12 15.6709 12 13.8972C12 13.6123 12.0941 13.3748 12.2824 13.1848C12.4706 12.9949 12.7059 12.8999 12.9882 12.8999H16.0579C16.2956 12.8999 16.5053 12.9774 16.6869 13.1325C16.8685 13.2876 16.984 13.4791 17.0334 13.7072L17.5728 16.4764C17.6102 16.7334 17.6024 16.9542 17.5493 17.1388C17.4962 17.3234 17.4009 17.4785 17.2633 17.604L15.0896 19.7198C15.4395 20.3605 15.8392 20.9666 16.2887 21.5379C16.7381 22.1093 17.2247 22.655 17.7484 23.175C18.2648 23.6915 18.8139 24.1711 19.3955 24.614C19.9771 25.0568 20.6051 25.4689 21.2797 25.8502L23.3919 23.7198C23.5391 23.5666 23.7174 23.4592 23.9267 23.3977C24.1361 23.3361 24.3536 23.3211 24.5792 23.3524L27.1927 23.8845C27.4305 23.9473 27.6244 24.0686 27.7747 24.2483C27.9249 24.4281 28 24.6321 28 24.8601V27.9117C28 28.194 27.905 28.4293 27.7151 28.6175C27.5251 28.8058 27.2876 28.8999 27.0027 28.8999ZM14.4217 18.3841L16.1014 16.7768C16.1315 16.7527 16.1511 16.7195 16.1602 16.6773C16.1692 16.635 16.1677 16.5958 16.1557 16.5596L15.7466 14.4564C15.7345 14.4082 15.7134 14.372 15.6833 14.3479C15.6531 14.3237 15.6139 14.3116 15.5656 14.3116H13.5529C13.5167 14.3116 13.4866 14.3237 13.4624 14.3479C13.4383 14.372 13.4262 14.4022 13.4262 14.4384C13.4745 15.0815 13.5798 15.7349 13.7421 16.3985C13.9044 17.0622 14.1309 17.7241 14.4217 18.3841ZM22.6099 26.518C23.2338 26.8088 23.8845 27.0312 24.562 27.185C25.2395 27.3388 25.8727 27.4302 26.4615 27.4592C26.4978 27.4592 26.5279 27.4471 26.552 27.423C26.5762 27.3989 26.5883 27.3687 26.5883 27.3325V25.3524C26.5883 25.3041 26.5762 25.2649 26.552 25.2347C26.5279 25.2046 26.4917 25.1835 26.4435 25.1714L24.467 24.7696C24.4308 24.7575 24.3991 24.756 24.372 24.7651C24.3448 24.7741 24.3162 24.7937 24.286 24.8239L22.6099 26.518Z" fill="white"/>
</svg>
