<svg width="16" height="21" viewBox="0 0 16 21" fill="none" xmlns="http://www.w3.org/2000/svg">
<g clip-path="url(#clip0_165_774)">
<path d="M3.64834 6.45558V3.54961H4.79123V6.45558H3.64834ZM3.64834 15.4727V10.6436H4.79123V15.4727H3.64834ZM1.84614 20.9C1.33479 20.9 0.899257 20.7252 0.539543 20.3755C0.179848 20.0257 0 19.6023 0 19.1052V2.69489C0 2.19774 0.179848 1.7743 0.539543 1.42458C0.899257 1.07488 1.33479 0.900024 1.84614 0.900024H14.1539C14.6652 0.900024 15.1007 1.07488 15.4605 1.42458C15.8202 1.7743 16 2.19774 16 2.69489V19.1052C16 19.6023 15.8202 20.0257 15.4605 20.3755C15.1007 20.7252 14.6652 20.9 14.1539 20.9H1.84614ZM1.84614 19.7889H14.1539C14.359 19.7889 14.5275 19.7248 14.6593 19.5966C14.7912 19.4684 14.8571 19.3046 14.8571 19.1052V9.10516H1.14286V19.1052C1.14286 19.3046 1.20879 19.4684 1.34066 19.5966C1.47252 19.7248 1.64102 19.7889 1.84614 19.7889ZM1.14286 7.99405H14.8571V2.69489C14.8571 2.49546 14.7912 2.33164 14.6593 2.20344C14.5275 2.07524 14.359 2.01114 14.1539 2.01114H1.84614C1.64102 2.01114 1.47252 2.07524 1.34066 2.20344C1.20879 2.33164 1.14286 2.49546 1.14286 2.69489V7.99405Z" fill="#161616"/>
</g>
<defs>
<clipPath id="clip0_165_774">
<rect width="16" height="20" fill="white" transform="translate(0 0.900024)"/>
</clipPath>
</defs>
</svg>
