<svg width="40" height="41" viewBox="0 0 40 41" fill="none" xmlns="http://www.w3.org/2000/svg">
<rect y="0.399902" width="40" height="40" rx="8" fill="#901D63"/>
<path d="M12.3077 27.8999C11.8026 27.8999 11.375 27.7249 11.025 27.3749C10.675 27.0249 10.5 26.5973 10.5 26.0922V14.7076C10.5 14.2025 10.675 13.7749 11.025 13.4249C11.375 13.0749 11.8026 12.8999 12.3077 12.8999H27.6923C28.1974 12.8999 28.625 13.0749 28.975 13.4249C29.325 13.7749 29.5 14.2025 29.5 14.7076V26.0922C29.5 26.5973 29.325 27.0249 28.975 27.3749C28.625 27.7249 28.1974 27.8999 27.6923 27.8999H12.3077ZM20 20.9575L12 15.8422V26.0922C12 26.1819 12.0288 26.2556 12.0865 26.3133C12.1442 26.371 12.218 26.3999 12.3077 26.3999H27.6923C27.782 26.3999 27.8557 26.371 27.9134 26.3133C27.9711 26.2556 28 26.1819 28 26.0922V15.8422L20 20.9575ZM20 19.3999L27.8461 14.3999H12.1538L20 19.3999ZM12 15.8422V14.3999V26.0922C12 26.1819 12.0288 26.2556 12.0865 26.3133C12.1442 26.371 12.218 26.3999 12.3077 26.3999H12V15.8422Z" fill="white"/>
</svg>
