<svg width="16" height="15" viewBox="0 0 16 15" fill="none" xmlns="http://www.w3.org/2000/svg">
<g clip-path="url(#clip0_165_780)">
<path d="M0 14.9V14.025H1.77778V0.900024H14.2222V14.025H16V14.9H0ZM2.66667 14.025H6.60513C6.48661 12.892 6.10599 11.7593 5.46324 10.6268C4.8205 9.49438 3.88831 8.76942 2.66667 8.45195V14.025ZM2.66667 1.77502V7.3481C3.88831 7.03063 4.8205 6.30567 5.46324 5.17322C6.10599 4.04076 6.48661 2.90803 6.60513 1.77502H2.66667ZM3.653 7.90002C4.83134 8.39923 5.74017 9.24001 6.37949 10.4224C7.01881 11.6048 7.39602 12.8056 7.51111 14.025H8.48889C8.60399 12.8056 8.98119 11.6048 9.62051 10.4224C10.2598 9.24001 11.1687 8.39923 12.347 7.90002C11.1573 7.40082 10.2427 6.56004 9.60342 5.37766C8.9641 4.19529 8.5869 2.99441 8.4718 1.77502H7.51111C7.39602 2.99441 7.01881 4.19529 6.37949 5.37766C5.74017 6.56004 4.83134 7.40082 3.653 7.90002ZM13.3333 1.77502H9.37778C9.4963 2.90803 9.87693 4.04076 10.5197 5.17322C11.1624 6.30567 12.1003 7.03063 13.3333 7.3481V1.77502ZM13.3333 14.025V8.45195C12.1003 8.76942 11.1661 9.49438 10.5308 10.6268C9.89544 11.7593 9.51852 12.892 9.4 14.025H13.3333Z" fill="#161616"/>
</g>
<defs>
<clipPath id="clip0_165_780">
<rect width="16" height="14" fill="white" transform="translate(0 0.900024)"/>
</clipPath>
</defs>
</svg>
