<svg width="16" height="17" viewBox="0 0 16 17" fill="none" xmlns="http://www.w3.org/2000/svg">
<g clip-path="url(#clip0_165_776)">
<path d="M4.2167 15.4312L3.70346 14.411C3.50742 14.0065 3.35712 13.5891 3.25255 13.1585C3.148 12.728 3.09572 12.291 3.09572 11.8474C3.09572 11.3475 3.17223 10.8543 3.32524 10.3676C3.47827 9.88091 3.66789 9.40737 3.89409 8.94699C4.12762 8.46548 4.33536 7.97727 4.5173 7.48236C4.69925 6.98746 4.79022 6.47755 4.79022 5.95266C4.79022 5.5685 4.74867 5.19203 4.66557 4.82325C4.58247 4.45446 4.4524 4.09948 4.27535 3.75832L3.75722 2.73323C3.70943 2.63066 3.70265 2.52728 3.73686 2.4231C3.77107 2.31892 3.83978 2.23767 3.94297 2.17937C4.04616 2.12107 4.15322 2.11111 4.26417 2.14948C4.37513 2.18785 4.45924 2.25935 4.5165 2.36398L5.02974 3.3891C5.22578 3.79352 5.37608 4.21099 5.48063 4.64152C5.58519 5.07205 5.63747 5.50909 5.63747 5.95266C5.63747 6.46589 5.56096 6.96596 5.40793 7.45287C5.25492 7.93977 5.06531 8.41352 4.83911 8.87411C4.60557 9.35563 4.39783 9.84024 4.2159 10.328C4.03395 10.8157 3.94297 11.3222 3.94297 11.8474C3.94297 12.2315 3.98453 12.608 4.06763 12.9768C4.15071 13.3456 4.28079 13.7006 4.45785 14.0417L4.97596 15.062C5.02376 15.1645 5.03055 15.2679 4.99634 15.3721C4.96212 15.4763 4.89342 15.5575 4.79022 15.6158C4.68703 15.6741 4.57996 15.6841 4.46901 15.6457C4.35806 15.6074 4.27396 15.5358 4.2167 15.4312ZM1.12098 15.4312L0.607733 14.411C0.411693 14.0065 0.261391 13.5891 0.156826 13.1585C0.0522755 12.728 0 12.291 0 11.8474C0 11.3475 0.0765067 10.8543 0.22952 10.3676C0.382547 9.88091 0.572162 9.40737 0.798364 8.94699C1.03191 8.46548 1.23965 7.97727 1.42158 7.48236C1.60353 6.98746 1.6945 6.47755 1.6945 5.95266C1.6945 5.5685 1.65295 5.19203 1.56985 4.82325C1.48676 4.45446 1.35669 4.09948 1.17963 3.75832L0.66149 2.73323C0.613706 2.63066 0.60692 2.52728 0.641135 2.4231C0.67535 2.31892 0.744055 2.23767 0.84725 2.17937C0.950431 2.12107 1.0575 2.11111 1.16846 2.14948C1.27941 2.18785 1.36351 2.25935 1.42077 2.36398L1.93402 3.3891C2.13006 3.79352 2.28036 4.21099 2.38492 4.64152C2.48947 5.07205 2.54175 5.50909 2.54175 5.95266C2.54175 6.46589 2.46524 6.96596 2.31221 7.45287C2.1592 7.93977 1.96959 8.41352 1.74339 8.87411C1.50984 9.35563 1.3021 9.84024 1.12017 10.328C0.938223 10.8157 0.84725 11.3222 0.84725 11.8474C0.84725 12.2315 0.888801 12.608 0.971902 12.9768C1.05499 13.3456 1.18506 13.7006 1.36212 14.0417L1.88024 15.062C1.92804 15.1645 1.93483 15.2679 1.90061 15.3721C1.8664 15.4763 1.7977 15.5575 1.6945 15.6158C1.59131 15.6741 1.48423 15.6841 1.37329 15.6457C1.26234 15.6074 1.17824 15.5358 1.12098 15.4312ZM7.5275 16.479V1.32108C7.5275 1.20178 7.56815 1.10178 7.64944 1.02108C7.73075 0.940375 7.8315 0.900024 7.9517 0.900024C8.07188 0.900024 8.17243 0.940375 8.25336 1.02108C8.33429 1.10178 8.37475 1.20178 8.37475 1.32108V4.97775L11.2521 2.15508C11.3314 2.07627 11.4278 2.03416 11.5413 2.02876C11.6549 2.02337 11.7595 2.06827 11.8553 2.16346C11.9431 2.25073 11.987 2.34888 11.987 2.45792C11.987 2.56696 11.9419 2.66628 11.8517 2.7559L8.37475 6.21177V8.47897H10.6558L14.1328 5.0231C14.2121 4.94429 14.3085 4.90138 14.422 4.89436C14.5355 4.88734 14.6373 4.92861 14.7274 5.01817C14.81 5.10026 14.8513 5.19853 14.8513 5.31297C14.8513 5.42741 14.8117 5.52944 14.7324 5.61906L11.8974 8.47897H15.5764C15.6964 8.47897 15.797 8.51938 15.8782 8.60019C15.9594 8.68099 16 8.78113 16 8.90059C16 9.02006 15.9594 9.12 15.8782 9.20043C15.797 9.28086 15.6964 9.32108 15.5764 9.32108H11.8974L14.7373 12.181C14.8166 12.2598 14.8589 12.3556 14.8643 12.4684C14.8698 12.5813 14.8246 12.6853 14.7288 12.7805C14.641 12.8677 14.5423 12.9114 14.4326 12.9114C14.3229 12.9114 14.2229 12.8666 14.1328 12.777L10.6558 9.32108H8.37475V11.5883L11.8517 15.0442C11.931 15.123 11.9742 15.2188 11.9813 15.3316C11.9883 15.4444 11.9468 15.5456 11.8567 15.6352C11.7741 15.7173 11.6752 15.7583 11.5601 15.7583C11.4449 15.7583 11.3423 15.7189 11.2521 15.6401L8.37475 12.8223V16.479C8.37475 16.5983 8.3341 16.6983 8.25279 16.779C8.17148 16.8597 8.07073 16.9 7.95055 16.9C7.83036 16.9 7.72979 16.8597 7.64887 16.779C7.56796 16.6983 7.5275 16.5983 7.5275 16.479Z" fill="#161616"/>
</g>
<defs>
<clipPath id="clip0_165_776">
<rect width="16" height="16" fill="white" transform="translate(0 0.900024)"/>
</clipPath>
</defs>
</svg>
