<svg width="16" height="15" viewBox="0 0 16 15" fill="none" xmlns="http://www.w3.org/2000/svg">
<g clip-path="url(#clip0_164_625)">
<path d="M2.05129 11.1308H3.28204C3.22507 10.8178 3.08519 10.5517 2.8624 10.3323C2.6396 10.113 2.36923 9.97535 2.05129 9.91926V11.1308ZM5.20684 11.1308H5.98291C5.98291 10.055 5.60086 9.14101 4.83676 8.38884C4.07265 7.63668 3.14416 7.2606 2.05129 7.2606V8.02454C2.92536 8.02454 3.66981 8.32714 4.28462 8.93235C4.89944 9.53756 5.20684 10.2704 5.20684 11.1308ZM7.90769 11.1308H8.68376C8.68376 10.2356 8.50997 9.38949 8.1624 8.59246C7.81482 7.79542 7.34159 7.10215 6.74273 6.51265C6.14387 5.92314 5.4396 5.45732 4.62991 5.11516C3.82022 4.77302 2.96068 4.60195 2.05129 4.60195V5.36589C3.6775 5.36589 5.06011 5.92651 6.19913 7.04775C7.33817 8.16898 7.90769 9.52999 7.90769 11.1308ZM5.33333 14.9V13.15H1.43589C1.02678 13.15 0.685185 13.0151 0.411111 12.7453C0.137037 12.4755 0 12.1393 0 11.7366V2.31348C0 1.91076 0.137037 1.5745 0.411111 1.30471C0.685185 1.03492 1.02678 0.900024 1.43589 0.900024H14.5641C14.9732 0.900024 15.3148 1.03492 15.5889 1.30471C15.863 1.5745 16 1.91076 16 2.31348V11.7366C16 12.1393 15.863 12.4755 15.5889 12.7453C15.3148 13.0151 14.9732 13.15 14.5641 13.15H10.6667V14.9H5.33333ZM1.43589 12.275H14.5641C14.7009 12.275 14.8262 12.2189 14.9402 12.1068C15.0541 11.9946 15.1111 11.8712 15.1111 11.7366V2.31348C15.1111 2.17887 15.0541 2.05548 14.9402 1.94329C14.8262 1.83111 14.7009 1.77502 14.5641 1.77502H1.43589C1.29915 1.77502 1.17379 1.83111 1.05982 1.94329C0.945867 2.05548 0.888889 2.17887 0.888889 2.31348V11.7366C0.888889 11.8712 0.945867 11.9946 1.05982 12.1068C1.17379 12.2189 1.29915 12.275 1.43589 12.275Z" fill="#161616"/>
</g>
<defs>
<clipPath id="clip0_164_625">
<rect width="16" height="14" fill="white" transform="translate(0 0.900024)"/>
</clipPath>
</defs>
</svg>
