<svg width="16" height="11" viewBox="0 0 16 11" fill="none" xmlns="http://www.w3.org/2000/svg">
<g clip-path="url(#clip0_165_784)">
<path d="M8 10.9C7.68451 10.9 7.41784 10.8001 7.20001 10.6003C6.98216 10.4005 6.87323 10.1558 6.87323 9.86644C6.87323 9.57703 6.98216 9.33241 7.20001 9.13258C7.41784 8.93275 7.68451 8.83284 8 8.83284C8.31549 8.83284 8.58216 8.93275 8.80001 9.13258C9.01785 9.33241 9.12677 9.57703 9.12677 9.86644C9.12677 10.1558 9.01785 10.4005 8.80001 10.6003C8.58216 10.8001 8.31549 10.9 8 10.9ZM3.86197 7.49176L3.11268 6.79666C3.74836 6.21354 4.48177 5.75683 5.3129 5.42651C6.14405 5.09619 7.04053 4.93103 8.00234 4.93103C8.96416 4.93103 9.85986 5.09684 10.6894 5.42845C11.519 5.76006 12.2516 6.21872 12.8873 6.80442L12.138 7.49176C11.6009 6.99908 10.9784 6.61278 10.2704 6.33284C9.56244 6.05291 8.80563 5.91295 8 5.91295C7.19437 5.91295 6.43756 6.05291 5.72958 6.33284C5.0216 6.61278 4.39906 6.99908 3.86197 7.49176ZM0.749295 4.63646L0 3.94913C1.01971 3.00856 2.20985 2.26523 3.57042 1.71914C4.93098 1.17306 6.40751 0.900024 8 0.900024C9.59249 0.900024 11.069 1.17306 12.4296 1.71914C13.7901 2.26523 14.9803 3.00856 16 3.94913L15.2507 4.63646C14.3108 3.77428 13.2214 3.09964 11.9824 2.61256C10.7434 2.12548 9.41596 1.88194 8 1.88194C6.58404 1.88194 5.25657 2.12548 4.01761 2.61256C2.77864 3.09964 1.6892 3.77428 0.749295 4.63646Z" fill="#161616"/>
</g>
<defs>
<clipPath id="clip0_165_784">
<rect width="16" height="10" fill="white" transform="translate(0 0.900024)"/>
</clipPath>
</defs>
</svg>
