<svg width="16" height="19" viewBox="0 0 16 19" fill="none" xmlns="http://www.w3.org/2000/svg">
<g clip-path="url(#clip0_165_778)">
<path d="M0 18.9V2.66225C0 2.17763 0.180771 1.76278 0.542314 1.41769C0.903838 1.07258 1.33845 0.900024 1.84614 0.900024H14.1539C14.6616 0.900024 15.0962 1.07258 15.4577 1.41769C15.8192 1.76278 16 2.17763 16 2.66225V18.9H14.8571V16.4665H1.14286V18.9H0ZM1.14286 9.3336H7.42857V1.99093H1.84614C1.64102 1.99093 1.47252 2.05387 1.34066 2.17974C1.20879 2.30561 1.14286 2.46645 1.14286 2.66225V9.3336ZM8.57143 5.1168H14.8571V2.66225C14.8571 2.46645 14.7912 2.30561 14.6593 2.17974C14.5275 2.05387 14.359 1.99093 14.1539 1.99093H8.57143V5.1168ZM8.57143 9.3336H14.8571V6.20771H8.57143V9.3336ZM6.28571 13.4455H9.71429V12.3546H6.28571V13.4455ZM1.14286 10.4245V15.3755H14.8571V10.4245H1.14286Z" fill="#161616"/>
</g>
<defs>
<clipPath id="clip0_165_778">
<rect width="16" height="18" fill="white" transform="translate(0 0.900024)"/>
</clipPath>
</defs>
</svg>
