<svg width="16" height="15" viewBox="0 0 16 15" fill="none" xmlns="http://www.w3.org/2000/svg">
<g clip-path="url(#clip0_165_782)">
<path d="M7.55556 12.4H8.44444V11.4H9.53847C9.73334 11.4 9.89602 11.3266 10.0265 11.1798C10.157 11.033 10.2222 10.85 10.2222 10.6308V8.16925C10.2222 7.95002 10.157 7.76701 10.0265 7.62022C9.89602 7.47342 9.73334 7.40002 9.53847 7.40002H6.66667V5.40002H10.2222V4.40002H8.44444V3.40002H7.55556V4.40002H6.46153C6.26666 4.40002 6.10399 4.47342 5.97351 4.62022C5.84302 4.76701 5.77778 4.95002 5.77778 5.16925V7.6308C5.77778 7.85003 5.84302 8.03304 5.97351 8.17982C6.10399 8.32662 6.26666 8.40002 6.46153 8.40002H9.33333V10.4H5.77778V11.4H7.55556V12.4ZM1.43589 14.9C1.02678 14.9 0.685185 14.7459 0.411111 14.4375C0.137037 14.1292 0 13.7449 0 13.2846V2.5154C0 2.05515 0.137037 1.67086 0.411111 1.36252C0.685185 1.05419 1.02678 0.900024 1.43589 0.900024H14.5641C14.9732 0.900024 15.3148 1.05419 15.5889 1.36252C15.863 1.67086 16 2.05515 16 2.5154V13.2846C16 13.7449 15.863 14.1292 15.5889 14.4375C15.3148 14.7459 14.9732 14.9 14.5641 14.9H1.43589ZM1.43589 13.9H14.5641C14.7009 13.9 14.8262 13.8359 14.9402 13.7077C15.0541 13.5795 15.1111 13.4385 15.1111 13.2846V2.5154C15.1111 2.36157 15.0541 2.22054 14.9402 2.09232C14.8262 1.96412 14.7009 1.90002 14.5641 1.90002H1.43589C1.29915 1.90002 1.17379 1.96412 1.05982 2.09232C0.945867 2.22054 0.888889 2.36157 0.888889 2.5154V13.2846C0.888889 13.4385 0.945867 13.5795 1.05982 13.7077C1.17379 13.8359 1.29915 13.9 1.43589 13.9Z" fill="#161616"/>
</g>
<defs>
<clipPath id="clip0_165_782">
<rect width="16" height="14" fill="white" transform="translate(0 0.900024)"/>
</clipPath>
</defs>
</svg>
