<svg width="16" height="13" viewBox="0 0 16 13" fill="none" xmlns="http://www.w3.org/2000/svg">
<g clip-path="url(#clip0_165_772)">
<path d="M2.43022 12.9001C2.31674 12.9001 2.22179 12.8594 2.14538 12.7779C2.06897 12.6964 2.03076 12.5954 2.03076 12.475V11.6249H1.6C1.14872 11.6249 0.769233 11.4614 0.46154 11.1344C0.153847 10.8074 0 10.4042 0 9.9246V5.67393C0 5.12898 0.169227 4.70936 0.50768 4.41507C0.846147 4.1208 1.21025 3.97366 1.6 3.97366V2.60035C1.6 2.12079 1.75385 1.71753 2.06154 1.39055C2.36923 1.06357 2.74872 0.900085 3.2 0.900085H12.8C13.2513 0.900085 13.6308 1.06357 13.9385 1.39055C14.2462 1.71753 14.4 2.12079 14.4 2.60035V3.97366C14.8308 3.97366 15.2051 4.12897 15.5231 4.4396C15.841 4.75022 16 5.16166 16 5.67393V9.9246C16 10.4042 15.8462 10.8074 15.5385 11.1344C15.2308 11.4614 14.8513 11.6249 14.4 11.6249H13.9692V12.475C13.9692 12.5954 13.9362 12.6964 13.87 12.7779C13.8039 12.8594 13.714 12.9001 13.6005 12.9001C13.487 12.9001 13.3919 12.8594 13.3152 12.7779C13.2384 12.6964 13.2 12.5954 13.2 12.475V11.6249H2.83078V12.475C2.83078 12.596 2.79239 12.6971 2.71562 12.7783C2.63885 12.8595 2.54371 12.9001 2.43022 12.9001ZM1.6 10.7747H14.4C14.6267 10.7747 14.8167 10.6933 14.97 10.5303C15.1233 10.3674 15.2 10.1655 15.2 9.9246V5.67393C15.2 5.43306 15.1233 5.23115 14.97 5.06821C14.8167 4.90526 14.6267 4.82379 14.4 4.82379C14.1733 4.82379 13.9833 4.90526 13.83 5.06821C13.6767 5.23115 13.6 5.43306 13.6 5.67393V8.6494H2.4V5.67393C2.4 5.43306 2.32333 5.23115 2.17 5.06821C2.01667 4.90526 1.82667 4.82379 1.6 4.82379C1.37333 4.82379 1.18333 4.90526 1.03 5.06821C0.876667 5.23115 0.8 5.43306 0.8 5.67393V9.9246C0.8 10.1655 0.876667 10.3674 1.03 10.5303C1.18333 10.6933 1.37333 10.7747 1.6 10.7747ZM3.2 7.79926H12.8V5.67393C12.8 5.36767 12.8733 5.08593 13.02 4.8287C13.1667 4.57148 13.36 4.37148 13.6 4.2287V2.60035C13.6 2.35948 13.5233 2.15758 13.37 1.99463C13.2167 1.83169 13.0267 1.75022 12.8 1.75022H3.2C2.97333 1.75022 2.78333 1.83169 2.63 1.99463C2.47667 2.15758 2.4 2.35948 2.4 2.60035V4.2287C2.64 4.37148 2.83333 4.57148 2.98 4.8287C3.12667 5.08593 3.2 5.36767 3.2 5.67393V7.79926Z" fill="#161616"/>
</g>
<defs>
<clipPath id="clip0_165_772">
<rect width="16" height="12" fill="white" transform="translate(0 0.900024)"/>
</clipPath>
</defs>
</svg>
