<svg width="54" height="42" viewBox="0 0 54 42" fill="none" xmlns="http://www.w3.org/2000/svg">
<path d="M4.75023 38.3632C1.65948 35.0824 0 31.3999 0 25.4311C0 14.9327 7.36953 5.52106 18.0918 0.869622L20.7698 5.00245C10.7641 10.4163 8.80854 17.4382 8.02692 21.8662C9.63789 21.0331 11.7467 20.74 13.8141 20.9317C19.2272 21.4333 23.4936 25.8772 23.4936 31.3999C23.4936 37.1989 18.7925 41.8999 12.9935 41.8999C9.7743 41.8999 6.69588 40.4287 4.75023 38.3632ZM34.7502 38.3632C31.6596 35.0824 30 31.3999 30 25.4311C30 14.9327 37.3695 5.52106 48.0918 0.869622L50.7699 5.00245C40.764 10.4163 38.8086 17.4382 38.0268 21.8662C39.6378 21.0331 41.7468 20.74 43.8141 20.9317C49.2273 21.4333 53.4936 25.8772 53.4936 31.3999C53.4936 37.1989 48.7926 41.8999 42.9936 41.8999C39.7743 41.8999 36.696 40.4287 34.7502 38.3632Z" fill="#901D63"/>
</svg>
